<svg xmlns="http://www.w3.org/2000/svg" xmlns:xlink="http://www.w3.org/1999/xlink" version="1.1" id="Layer_1" x="0" y="0" viewBox="0 0 17.84 14.8" xml:space="preserve"><style type="text/css">
	.st0{fill:#333942;}
</style><path class="st0" d="M17.038 5.55l-8.116 8.116 -8.118-8.116c-0.184-0.183-0.48-0.183-0.664 0 -0.184 0.184-0.184 0.481 0 0.664l8.448 8.448c0.092 0.091 0.212 0.137 0.332 0.137 0.119 0 0.24-0.046 0.331-0.137l8.449-8.448c0.184-0.184 0.184-0.48 0-0.664C17.52 5.367 17.221 5.367 17.038 5.55zM17.038 0.14l-8.116 8.115 -8.118-8.115c-0.184-0.184-0.48-0.184-0.664 0s-0.184 0.481 0 0.664l8.448 8.449C8.68 9.344 8.8 9.39 8.92 9.39c0.119 0 0.24-0.046 0.331-0.137l8.449-8.449c0.184-0.184 0.184-0.481 0-0.664C17.518-0.044 17.221-0.044 17.038 0.14z"/></svg>