<svg xmlns="http://www.w3.org/2000/svg" xmlns:xlink="http://www.w3.org/1999/xlink" version="1.1" id="Layer_1" x="0" y="0" viewBox="0 0 20.5 19.6" xml:space="preserve"><style type="text/css">
	.st0{fill:#333942;}
</style><path class="st0" d="M4.7 19.6V6.4H0.3v13.2H4.7L4.7 19.6zM2.5 4.6c1.5 0 2.5-1 2.5-2.3C4.9 1 4 0 2.5 0 1 0 0 1 0 2.3 0 3.6 1 4.6 2.5 4.6L2.5 4.6 2.5 4.6zM7.1 19.6h4.4v-7.4c0-0.4 0-0.8 0.1-1.1 0.3-0.8 1-1.6 2.3-1.6 1.6 0 2.2 1.2 2.2 3v7.1h4.4V12c0-4.1-2.2-6-5.1-6 -2.4 0-3.4 1.3-4 2.2h0V6.4H7.1C7.2 7.6 7.1 19.6 7.1 19.6L7.1 19.6z"/></svg>